<?xml version="1.0" encoding="UTF-8" standalone="no"?>
<!-- Created with Inkscape (http://www.inkscape.org/) -->

<svg
   width="115.76671mm"
   height="118.51834mm"
   viewBox="0 0 115.76672 118.51835"
   version="1.1"
   id="svg5"
   sodipodi:docname="logo.svg"
   inkscape:version="1.1.2 (08b2f3d93c, 2022-04-05)"
   inkscape:export-filename="/home/pedro/Downloads/logo.png"
   inkscape:export-xdpi="515.58002"
   inkscape:export-ydpi="515.58002"
   xmlns:inkscape="http://www.inkscape.org/namespaces/inkscape"
   xmlns:sodipodi="http://sodipodi.sourceforge.net/DTD/sodipodi-0.dtd"
   xmlns="http://www.w3.org/2000/svg"
   xmlns:svg="http://www.w3.org/2000/svg">
  <sodipodi:namedview
     id="namedview7"
     pagecolor="#ffffff"
     bordercolor="#999999"
     borderopacity="1"
     inkscape:pageshadow="0"
     inkscape:pageopacity="0"
     inkscape:pagecheckerboard="0"
     inkscape:document-units="mm"
     showgrid="false"
     inkscape:zoom="0.37593996"
     inkscape:cx="-441.55988"
     inkscape:cy="146.29996"
     inkscape:window-width="1920"
     inkscape:window-height="1043"
     inkscape:window-x="1920"
     inkscape:window-y="0"
     inkscape:window-maximized="1"
     inkscape:current-layer="layer1" />
  <defs
     id="defs2" />
  <g
     inkscape:label="Layer 1"
     inkscape:groupmode="layer"
     id="layer1"
     transform="translate(-78.56063,-76.637672)">
    <path
       style="fill:#e11e3a;fill-opacity:1;stroke-width:0.748634"
       d="m 113.22502,161.87199 c 0,-7.2056 -0.24207,-13.10109 -0.53793,-13.10109 -0.29587,0 -2.24532,1.68617 -4.33212,3.74705 l -3.79418,3.74705 -3.1429,-3.20239 -3.142915,-3.20238 19.075205,-19.06421 19.07521,-19.06421 8.42577,8.22394 c 23.60449,23.03911 29.76183,29.23819 29.76183,29.96364 0,0.43645 -1.34975,2.11154 -2.99945,3.72242 l -2.99945,2.92889 -3.94896,-3.8999 c -2.17192,-2.14495 -4.19102,-3.8999 -4.48689,-3.8999 -0.29586,0 -0.53793,5.89549 -0.53793,13.10109 v 13.10109 h -4.4918 -4.4918 v -18.176 -18.17599 l -4.86612,-4.82287 -4.86612,-4.82286 v 22.99886 22.99886 h -4.4918 -4.49181 v -22.99886 -22.99886 l -4.86612,4.82286 -4.86612,4.82287 v 18.17599 18.176 h -4.4918 -4.4918 z m -3.68573,-34.5037 c -5.92555,-4.98604 0.0428,-14.16225 7.24239,-11.13504 2.80203,1.17816 3.92968,3.09971 3.92968,6.69631 0,5.74428 -6.53491,8.34063 -11.17207,4.43873 z m 45.98354,1.03392 c -2.34374,-1.34414 -3.31924,-3.0051 -3.34505,-5.69555 -0.033,-3.4399 1.15628,-5.32226 4.15394,-6.57476 2.21879,-0.92707 2.90112,-0.92707 5.11992,0 2.99765,1.2525 4.18693,3.13486 4.15393,6.57476 -0.0491,5.11865 -5.61068,8.26028 -10.08274,5.69555 z m -23.63955,-19.99995 c -3.6673,-3.66729 -2.75407,-9.004238 1.87147,-10.936909 4.82894,-2.01767 9.43126,0.90125 9.39181,5.956539 -0.0515,6.60487 -6.6993,9.54436 -11.26328,4.98037 z"
       id="path5527" />
  </g>
</svg>
